Coordinates
version=1
nRows=14
nColumns=40
inDegrees=yes

Units are S.I. units (second, meters, Newtons, ...)
Angles are in degrees.

endheader
time	pelvis_tilt	pelvis_list	pelvis_rotation	pelvis_tx	pelvis_ty	pelvis_tz	hip_flexion_r	hip_adduction_r	hip_rotation_r	knee_angle_r	knee_angle_r_beta	ankle_angle_r	subtalar_angle_r	mtp_angle_r	hip_flexion_l	hip_adduction_l	hip_rotation_l	knee_angle_l	knee_angle_l_beta	ankle_angle_l	subtalar_angle_l	mtp_angle_l	lumbar_extension	lumbar_bending	lumbar_rotation	arm_flex_r	arm_add_r	arm_rot_r	elbow_flex_r	pro_sup_r	wrist_flex_r	wrist_dev_r	arm_flex_l	arm_add_l	arm_rot_l	elbow_flex_l	pro_sup_l	wrist_flex_l	wrist_dev_l
      0.00000000	    -34.07430662	      0.69919785	     -4.00027217	     -2.04539918	      0.93503482	      0.22813746	     38.60693947	      1.50550984	     -8.60428854	      7.23120242	      7.23120242	     -3.17604459	      0.00000000	      0.00000000	     35.41800167	     -3.92215910	     -8.55384212	      3.05302902	      3.05302902	     -6.07794231	      0.00000000	      0.00000000	     36.37157436	      1.13984091	     -2.39201609	     -7.50540481	    -14.25246943	     22.01620688	     27.26244219	     58.90019871	      0.00000000	      0.00000000	     -5.04838892	    -11.58865090	     23.91366741	     20.55823311	     58.72281340	      0.00000000	      0.00000000
      0.01000000	    -34.08059165	      0.71067172	     -4.01888168	     -2.04530661	      0.93501309	      0.22828824	     38.59888524	      1.51723810	     -8.57876191	      7.21430989	      7.21430989	     -3.16739941	      0.00000000	      0.00000000	     35.41072781	     -3.93194831	     -8.58284853	      3.04773210	      3.04773210	     -6.06987749	      0.00000000	      0.00000000	     36.35569611	      1.15410347	     -2.39368201	     -7.48270104	    -14.31632585	     22.24613713	     27.32394116	     58.41994797	      0.00000000	      0.00000000	     -4.96466874	    -11.60116440	     24.11032918	     20.58116016	     58.47167648	      0.00000000	      0.00000000
      0.02000000	    -34.07814159	      0.72447796	     -4.03372760	     -2.04520479	      0.93500711	      0.22843042	     38.57971671	      1.52196235	     -8.54115813	      7.19623025	      7.19623025	     -3.17553590	      0.00000000	      0.00000000	     35.39127145	     -3.93399337	     -8.58445458	      3.03682603	      3.03682603	     -6.07418612	      0.00000000	      0.00000000	     36.33004897	      1.16623874	     -2.37831899	     -7.46644675	    -14.37377581	     22.44435500	     27.37557007	     57.97110415	      0.00000000	      0.00000000	     -4.87828816	    -11.62061647	     24.33753145	     20.62893505	     58.21579336	      0.00000000	      0.00000000
      0.03000000	    -34.10094601	      0.73872859	     -4.05337639	     -2.04514239	      0.93498175	      0.22859429	     38.59593635	      1.53822125	     -8.53310058	      7.18801955	      7.18801955	     -3.15955062	      0.00000000	      0.00000000	     35.41185460	     -3.94586297	     -8.61493610	      3.04983960	      3.04983960	     -6.06557126	      0.00000000	      0.00000000	     36.33445695	      1.17217221	     -2.38519562	     -7.44638414	    -14.40027243	     22.51176938	     27.39382675	     57.76129888	      0.00000000	      0.00000000	     -4.80122979	    -11.61356932	     24.41749864	     20.63020466	     58.09417454	      0.00000000	      0.00000000
      0.04000000	    -34.12034389	      0.75695425	     -4.07644183	     -2.04508093	      0.93495053	      0.22875537	     38.60635658	      1.54207957	     -8.47479449	      7.17702103	      7.17702103	     -3.16263672	      0.00000000	      0.00000000	     35.41180227	     -3.95524127	     -8.63024510	      3.02085895	      3.02085895	     -6.04861700	      0.00000000	      0.00000000	     36.33080946	      1.18742651	     -2.38133962	     -7.43466332	    -14.46132190	     22.65964502	     27.45414927	     57.64443583	      0.00000000	      0.00000000	     -4.73923476	    -11.65341814	     24.63634651	     20.69902641	     58.08537752	      0.00000000	      0.00000000
      0.05000000	    -34.11257499	      0.76460410	     -4.10547575	     -2.04499850	      0.93494217	      0.22891132	     38.58618958	      1.56141983	     -8.47835899	      7.16124183	      7.16124183	     -3.16465984	      0.00000000	      0.00000000	     35.39195232	     -3.97395391	     -8.66878467	      3.02210351	      3.02210351	     -6.04892401	      0.00000000	      0.00000000	     36.29209307	      1.20779548	     -2.37981663	     -7.39725898	    -14.47715840	     22.69053256	     27.44481295	     57.48211116	      0.00000000	      0.00000000	     -4.64741685	    -11.63115402	     24.68630993	     20.68854153	     57.95325357	      0.00000000	      0.00000000
      0.06000000	    -34.20493985	      0.77518409	     -4.11172781	     -2.04508562	      0.93483135	      0.22905172	     38.69422630	      1.57034327	     -8.44787720	      7.17438104	      7.17438104	     -3.19359954	      0.00000000	      0.00000000	     35.49307652	     -3.98494995	     -8.65329285	      3.02067625	      3.02067625	     -6.09417351	      0.00000000	      0.00000000	     36.35523542	      1.22073513	     -2.37784535	     -7.43154934	    -14.35158909	     21.82453549	     27.29643172	     59.80000348	      0.00000000	      0.00000000	     -4.60603188	    -11.54060586	     23.97357024	     20.65287838	     59.46349803	      0.00000000	      0.00000000
      0.07000000	    -34.18336097	      0.78366100	     -4.14625685	     -2.04499375	      0.93484897	      0.22920657	     38.66224462	      1.58927231	     -8.44454669	      7.16683387	      7.16683387	     -3.19046876	      0.00000000	      0.00000000	     35.45652223	     -4.00645215	     -8.68872528	      3.02106312	      3.02106312	     -6.05773918	      0.00000000	      0.00000000	     36.30707962	      1.24295000	     -2.39783672	     -7.36934197	    -14.40967941	     22.14845339	     27.31696582	     58.96468825	      0.00000000	      0.00000000	     -4.53866849	    -11.52185245	     24.04866577	     20.68241120	     58.88270440	      0.00000000	      0.00000000
      0.08000000	    -34.22620528	      0.79701410	     -4.14745536	     -2.04501500	      0.93477618	      0.22934935	     38.70701323	      1.58919540	     -8.44201064	      7.16376504	      7.16376504	     -3.17186387	      0.00000000	      0.00000000	     35.49810930	     -4.00999584	     -8.67194000	      3.01467181	      3.01467181	     -6.05752267	      0.00000000	      0.00000000	     36.32925630	      1.24182028	     -2.42407261	     -7.33117241	    -14.50461438	     22.53146487	     27.36972956	     58.57195529	      0.00000000	      0.00000000	     -4.48733343	    -11.57960927	     24.28740009	     20.79544144	     58.63388618	      0.00000000	      0.00000000
      0.09000000	    -34.23375787	      0.80913532	     -4.17355332	     -2.04493090	      0.93475669	      0.22964313	     38.70333307	      1.61848234	     -8.41106189	      7.15041443	      7.15041443	     -3.17182241	      0.00000000	      0.00000000	     35.48108836	     -4.03227461	     -8.70082619	      3.00005299	      3.00005299	     -6.06085074	      0.00000000	      0.00000000	     36.31732054	      1.23487115	     -2.45566301	     -7.29377181	    -14.51248473	     22.67509843	     27.38694386	     58.31027187	      0.00000000	      0.00000000	     -4.44355268	    -11.61021015	     24.32028339	     20.86024805	     58.34539015	      0.00000000	      0.00000000
      0.10000000	    -34.24261077	      0.80938925	     -4.16872752	     -2.04488417	      0.93473517	      0.22964191	     38.69988326	      1.61162545	     -8.41001895	      7.13847900	      7.13847900	     -3.17274428	      0.00000000	      0.00000000	     35.47659734	     -4.02818836	     -8.67258469	      2.97001435	      2.97001435	     -6.06720176	      0.00000000	      0.00000000	     36.30662056	      1.26080463	     -2.45650969	     -7.27753713	    -14.59158837	     22.84947247	     27.37672272	     58.20548462	      0.00000000	      0.00000000	     -4.38947346	    -11.61518673	     24.40797796	     20.99556735	     58.11097396	      0.00000000	      0.00000000
      0.11000000	    -34.28787417	      0.81766814	     -4.18279071	     -2.04491827	      0.93466230	      0.22980423	     38.74213647	      1.62730211	     -8.38308070	      7.12212027	      7.12212027	     -3.19343503	      0.00000000	      0.00000000	     35.52122031	     -4.04244015	     -8.68285219	      2.96613600	      2.96613600	     -6.08351314	      0.00000000	      0.00000000	     36.33282311	      1.27055589	     -2.49382778	     -7.24140835	    -14.62349718	     22.95584061	     27.36542013	     58.34489587	      0.00000000	      0.00000000	     -4.36429099	    -11.65204598	     24.47306342	     21.11629923	     58.00337261	      0.00000000	      0.00000000
      0.12000000	    -34.35483060	      0.83289770	     -4.19701703	     -2.04498744	      0.93458833	      0.22997911	     38.82989370	      1.63604591	     -8.40326615	      7.14513814	      7.14513814	     -3.20829939	      0.00000000	      0.00000000	     35.59862525	     -4.05277633	     -8.69524780	      2.97732211	      2.97732211	     -6.10512693	      0.00000000	      0.00000000	     36.36093758	      1.27605468	     -2.46650236	     -7.28358431	    -14.43941244	     21.86657986	     27.14234624	     61.03362108	      0.00000000	      0.00000000	     -4.31387714	    -11.54870732	     23.73454519	     21.10328928	     59.09517697	      0.00000000	      0.00000000
      0.13000000	    -34.33291036	      0.83041073	     -4.20532472	     -2.04487170	      0.93461218	      0.23015082	     38.78119447	      1.65607538	     -8.39971197	      7.11227519	      7.11227519	     -3.19957422	      0.00000000	      0.00000000	     35.55100821	     -4.06685672	     -8.70128420	      2.94840154	      2.94840154	     -6.09593947	      0.00000000	      0.00000000	     36.32133870	      1.28136578	     -2.49737092	     -7.23782681	    -14.51415690	     22.30155238	     27.18554166	     60.06102083	      0.00000000	      0.00000000	     -4.27240041	    -11.59673625	     23.95435993	     21.23474493	     58.46229575	      0.00000000	      0.00000000
